<svg width="536" height="112" viewBox="0 0 536 112" fill="none" xmlns="http://www.w3.org/2000/svg">
<path d="M174.56 72.32V82.4C172 82.9333 169.493 83.3333 167.04 83.6C164.587 83.8667 161.68 84 158.32 84C154 84 150.347 83.6267 147.36 82.88C144.427 82.1333 142.053 80.8267 140.24 78.96C138.48 77.04 137.2 74.3467 136.4 70.88C135.6 67.4133 135.2 62.96 135.2 57.52C135.2 52.2933 135.6 48 136.4 44.64C137.2 41.28 138.48 38.6933 140.24 36.88C142.053 35.0133 144.427 33.7333 147.36 33.04C150.347 32.2933 154 31.92 158.32 31.92C161.68 31.92 164.587 32.0533 167.04 32.32C169.493 32.5333 172 32.9333 174.56 33.52V43.92L174.32 44.08C172.08 43.5467 169.92 43.1733 167.84 42.96C165.76 42.6933 163.2 42.56 160.16 42.56C157.707 42.56 155.68 42.7467 154.08 43.12C152.533 43.44 151.307 44.1067 150.4 45.12C149.493 46.1333 148.853 47.6267 148.48 49.6C148.16 51.5733 148 54.2133 148 57.52C148 60.9867 148.16 63.7867 148.48 65.92C148.853 68 149.493 69.5733 150.4 70.64C151.307 71.7067 152.533 72.4267 154.08 72.8C155.68 73.1733 157.707 73.36 160.16 73.36C163.147 73.36 165.68 73.28 167.76 73.12C169.893 72.9067 172.027 72.5333 174.16 72L174.56 72.32ZM178.531 64.08C178.531 56.9333 180.051 51.7867 183.091 48.64C186.131 45.4933 191.278 43.92 198.531 43.92C203.385 43.92 207.278 44.6133 210.211 46C213.145 47.3867 215.251 49.5733 216.531 52.56C217.865 55.4933 218.531 59.3333 218.531 64.08C218.531 68.7733 217.865 72.5867 216.531 75.52C215.251 78.4533 213.145 80.6133 210.211 82C207.278 83.3333 203.385 84 198.531 84C191.278 84 186.131 82.4533 183.091 79.36C180.051 76.2133 178.531 71.12 178.531 64.08ZM198.531 73.04C201.625 73.04 203.705 72.3733 204.771 71.04C205.891 69.6533 206.451 67.2533 206.451 63.84C206.451 60.5867 205.891 58.2667 204.771 56.88C203.705 55.44 201.625 54.72 198.531 54.72C195.545 54.72 193.465 55.44 192.291 56.88C191.171 58.2667 190.611 60.5867 190.611 63.84C190.611 67.2533 191.171 69.6533 192.291 71.04C193.465 72.3733 195.545 73.04 198.531 73.04ZM238.116 83.28H225.316V29.44H238.116V83.28ZM260.538 83.28H247.738V29.44H260.538V83.28ZM284.959 43.92C290.079 43.92 294.213 44.4533 297.359 45.52C300.506 46.5867 302.799 48.56 304.239 51.44C305.733 54.2667 306.479 58.3733 306.479 63.76V83.28H294.879L294.479 79.6H294.239C293.226 80.9333 291.653 82 289.519 82.8C287.386 83.6 284.613 84 281.199 84C271.973 84 267.359 79.68 267.359 71.04C267.359 67.36 268.559 64.48 270.959 62.4C273.413 60.2667 277.253 59.2 282.479 59.2H294.319C293.946 56.96 292.986 55.4667 291.439 54.72C289.893 53.92 287.253 53.52 283.519 53.52C281.173 53.52 278.853 53.7067 276.559 54.08C274.319 54.4 272.346 54.7733 270.639 55.2L270.399 55.04L270.479 45.76C271.546 45.44 272.906 45.1467 274.559 44.88C276.213 44.56 277.946 44.32 279.759 44.16C281.626 44 283.359 43.92 284.959 43.92ZM284.479 74.56C287.786 74.56 290.266 74.16 291.919 73.36C293.573 72.5067 294.426 71.1733 294.479 69.36V67.36H285.439C283.093 67.36 281.439 67.7067 280.479 68.4C279.573 69.04 279.119 69.92 279.119 71.04C279.119 72.3733 279.599 73.3067 280.559 73.84C281.519 74.32 282.826 74.56 284.479 74.56ZM354.367 62.08C354.367 69.28 352.9 74.7467 349.967 78.48C347.034 82.16 342.047 84 335.007 84C331.06 84 327.38 83.8667 323.967 83.6C320.607 83.28 317.647 82.9067 315.087 82.48L314.847 82.32V29.44H327.647V50.32H327.967C328.714 48.4 329.94 46.8533 331.647 45.68C333.407 44.5067 335.887 43.92 339.087 43.92C349.274 43.92 354.367 49.9733 354.367 62.08ZM327.647 63.44V72.8C328.927 73.0133 330.42 73.12 332.127 73.12C334.634 73.12 336.58 72.9067 337.967 72.48C339.407 72 340.42 71.0933 341.007 69.76C341.594 68.4267 341.887 66.5067 341.887 64C341.887 60.8533 341.434 58.5333 340.527 57.04C339.62 55.5467 337.754 54.8 334.927 54.8C332.794 54.8 331.034 55.4667 329.647 56.8C328.314 58.08 327.647 60.2933 327.647 63.44ZM397.975 72.4V83.28H361.175V32.64H373.975V72.4H397.975ZM415.677 29.84C415.837 31.76 415.917 33.36 415.917 34.64C415.917 35.3867 415.89 36.16 415.837 36.96C415.837 37.7067 415.784 38.56 415.677 39.52C414.557 39.7333 413.464 39.8933 412.397 40C411.33 40.1067 410.264 40.16 409.197 40.16C408.184 40.16 407.144 40.1067 406.077 40C405.064 39.8933 404.024 39.7333 402.957 39.52C402.85 38.6133 402.77 37.7867 402.717 37.04C402.664 36.24 402.637 35.4667 402.637 34.72C402.637 34.0267 402.664 33.28 402.717 32.48C402.77 31.68 402.85 30.8 402.957 29.84C404.024 29.5733 405.09 29.4133 406.157 29.36C407.277 29.2533 408.37 29.2 409.437 29.2C410.45 29.2 411.464 29.2533 412.477 29.36C413.544 29.4133 414.61 29.5733 415.677 29.84ZM415.677 83.28H402.877V44.32H415.677V83.28ZM437.334 83.28H424.534V44.32H436.694L437.334 51.44H437.574C438.321 49.04 439.654 47.2 441.574 45.92C443.494 44.5867 446.161 43.92 449.574 43.92C454.214 43.92 457.628 45.2267 459.814 47.84C462.054 50.4533 463.174 54.9867 463.174 61.44V83.28H450.374L450.294 63.92C450.294 60.9333 449.841 58.8 448.934 57.52C448.028 56.24 446.321 55.6 443.814 55.6C441.468 55.6 439.814 56.1867 438.854 57.36C437.894 58.48 437.388 60.4267 437.334 63.2V83.28ZM484.756 83.28H471.956V29.44H484.756V60.8H484.916L494.996 44.32H509.076V44.64L497.236 63.04V63.36L510.996 83.28H496.276L484.996 65.28L484.756 65.2V83.28Z" fill="#1F2124"/>
<g clip-path="url(#clip0_1540_16642)">
<g filter="url(#filter0_d_1540_16642)">
<g clip-path="url(#clip1_1540_16642)">
<rect x="5.99951" y="6" width="100" height="100" rx="15" fill="url(#paint0_linear_1540_16642)"/>
<g clip-path="url(#clip2_1540_16642)">
<g filter="url(#filter1_d_1540_16642)">
<path d="M84.1781 27.8168C77.0175 20.6587 65.364 20.6587 58.2031 27.8168L47.8778 38.1453C52.3126 37.3292 56.9384 37.8724 61.1108 39.7536L65.6243 35.2431C68.6943 32.1731 73.6876 32.1731 76.7553 35.2431C79.8253 38.3076 79.8253 43.304 76.7553 46.374L72.2448 50.8845L69.2248 53.9076L65.625 57.505C64.0215 59.1084 61.8909 59.8535 59.7839 59.7798C58.2433 59.7273 56.7267 59.2158 55.4253 58.2686C55.1055 58.0324 54.7826 57.7962 54.4939 57.505C54.2028 57.2139 53.9665 56.8965 53.7303 56.5736C52.2533 55.8156 50.3953 56.0359 49.1594 57.2743L44.5964 61.8349C45.2971 62.9317 46.1156 63.9712 47.0708 64.9257C48.026 65.8834 49.0678 66.6995 50.1647 67.4001C51.3537 68.1636 52.6103 68.7649 53.9116 69.2184C58.6058 70.8846 63.8353 70.5904 68.333 68.3261C70.031 67.4703 71.6313 66.3425 73.0486 64.9228L73.8592 64.1122L84.1845 53.7894C91.3421 46.6368 91.3421 34.98 84.1784 27.8175L84.1781 27.8168Z" fill="white"/>
<path d="M50.889 72.2454L46.3754 76.7559C43.3054 79.8259 38.3121 79.8259 35.242 76.7559C32.172 73.6859 32.172 68.6949 35.242 65.6249L39.7556 61.109L42.7756 58.0915L46.3754 54.4941C47.9788 52.8907 50.1095 52.1407 52.2165 52.2193C53.757 52.2718 55.2737 52.7784 56.5751 53.7305C56.8949 53.9667 57.2178 54.2029 57.5065 54.4941C57.7976 54.7803 58.0338 55.1026 58.27 55.4255C59.7471 56.1835 61.605 55.9583 62.841 54.7223L67.4016 50.1617C66.7009 49.0649 65.8849 48.0255 64.9272 47.0709C63.9744 46.1133 62.9331 45.2917 61.8364 44.5966C60.6505 43.833 59.3908 43.2318 58.0896 42.7728C53.3953 41.112 48.1658 41.4032 43.6681 43.67C41.9677 44.5258 40.3699 45.6536 38.9502 47.0733L38.1421 47.879L27.8168 58.2074C20.6561 65.368 20.6561 77.0215 27.8168 84.1793C34.9774 91.343 46.6308 91.343 53.7918 84.1793L64.1171 73.8565C59.6847 74.6695 55.0613 74.1214 50.8889 72.2452L50.889 72.2454Z" fill="white"/>
</g>
<path d="M32.3074 40.7422C32.8393 37.6857 33.6912 36.834 36.7476 36.302C36.9174 36.302 37.0551 36.1642 37.0551 35.9944C37.0551 35.8245 36.9174 35.6869 36.7476 35.6869C33.6849 35.1672 32.8331 34.3155 32.3074 31.2588C32.3074 31.089 32.1697 30.9512 31.9999 30.9512C31.8301 30.9512 31.6923 31.089 31.6923 31.2588C31.1665 34.3153 30.3147 35.167 27.2583 35.6928C27.0885 35.6928 26.9507 35.8306 26.9507 36.0004C26.9507 36.1702 27.0885 36.3079 27.2583 36.3079C30.3148 36.8398 31.1665 37.6917 31.6985 40.7481C31.7216 40.8995 31.8525 41.0107 32.0055 41.0092C32.1587 41.0076 32.2874 40.8937 32.3074 40.742L32.3074 40.7422Z" fill="white"/>
<path d="M42.4305 30.6381C43.1752 26.3591 44.3679 25.1667 48.6468 24.4218C48.8846 24.4218 49.0773 24.2289 49.0773 23.9912C49.0773 23.7534 48.8846 23.5607 48.6468 23.5607C44.359 22.8331 43.1666 21.6407 42.4305 17.3613C42.4305 17.1236 42.2378 16.9307 42.0001 16.9307C41.7623 16.9307 41.5694 17.1236 41.5694 17.3613C40.8332 21.6404 39.6408 22.8328 35.3618 23.5689C35.1241 23.5689 34.9312 23.7618 34.9312 23.9996C34.9312 24.2373 35.1241 24.43 35.3618 24.43C39.6409 25.1747 40.8333 26.3674 41.5781 30.6463C41.6104 30.8583 41.7937 31.014 42.008 31.0119C42.2224 31.0097 42.4025 30.8501 42.4305 30.6378L42.4305 30.6381Z" fill="white"/>
</g>
</g>
<rect x="6.49951" y="6.5" width="99" height="99" rx="14.5" stroke="#E9EDF1" stroke-opacity="0.4"/>
</g>
</g>
<defs>
<filter id="filter0_d_1540_16642" x="1.99951" y="6" width="108" height="108" filterUnits="userSpaceOnUse" color-interpolation-filters="sRGB">
<feFlood flood-opacity="0" result="BackgroundImageFix"/>
<feColorMatrix in="SourceAlpha" type="matrix" values="0 0 0 0 0 0 0 0 0 0 0 0 0 0 0 0 0 0 127 0" result="hardAlpha"/>
<feOffset dy="4"/>
<feGaussianBlur stdDeviation="2"/>
<feComposite in2="hardAlpha" operator="out"/>
<feColorMatrix type="matrix" values="0 0 0 0 0.602686 0 0 0 0 0.630002 0 0 0 0 0.636831 0 0 0 0.1 0"/>
<feBlend mode="normal" in2="BackgroundImageFix" result="effect1_dropShadow_1540_16642"/>
<feBlend mode="normal" in="BackgroundImageFix" in2="effect1_dropShadow_1540_16642" result="BackgroundImageFix"/>
<feBlend mode="normal" in="SourceGraphic" in2="BackgroundImageFix" result="shape"/>
</filter>
<filter id="filter1_d_1540_16642" x="18.4463" y="22.4482" width="75.1057" height="75.1035" filterUnits="userSpaceOnUse" color-interpolation-filters="sRGB">
<feFlood flood-opacity="0" result="BackgroundImageFix"/>
<feColorMatrix in="SourceAlpha" type="matrix" values="0 0 0 0 0 0 0 0 0 0 0 0 0 0 0 0 0 0 127 0" result="hardAlpha"/>
<feOffset dy="4"/>
<feGaussianBlur stdDeviation="2"/>
<feComposite in2="hardAlpha" operator="out"/>
<feColorMatrix type="matrix" values="0 0 0 0 0.464441 0 0 0 0 0.583902 0 0 0 0 0.675255 0 0 0 0.25 0"/>
<feBlend mode="normal" in2="BackgroundImageFix" result="effect1_dropShadow_1540_16642"/>
<feBlend mode="normal" in="SourceGraphic" in2="effect1_dropShadow_1540_16642" result="shape"/>
</filter>
<linearGradient id="paint0_linear_1540_16642" x1="91.5" y1="26.5" x2="-13.7189" y2="89.6395" gradientUnits="userSpaceOnUse">
<stop stop-color="#7341FB"/>
<stop offset="0.27705" stop-color="#9D69FF"/>
<stop offset="0.607506" stop-color="#EA67FF"/>
<stop offset="0.92681" stop-color="#FFDD2B"/>
</linearGradient>
<clipPath id="clip0_1540_16642">
<rect width="112" height="112" fill="white"/>
</clipPath>
<clipPath id="clip1_1540_16642">
<rect x="5.99951" y="6" width="100" height="100" rx="15" fill="white"/>
</clipPath>
<clipPath id="clip2_1540_16642">
<rect width="80" height="80" fill="white" transform="translate(16 16)"/>
</clipPath>
</defs>
</svg>
