<svg width="529" height="112" viewBox="0 0 529 112" fill="none" xmlns="http://www.w3.org/2000/svg">
<path d="M167.56 72.32V82.4C165 82.9333 162.493 83.3333 160.04 83.6C157.587 83.8667 154.68 84 151.32 84C147 84 143.347 83.6267 140.36 82.88C137.427 82.1333 135.053 80.8267 133.24 78.96C131.48 77.04 130.2 74.3467 129.4 70.88C128.6 67.4133 128.2 62.96 128.2 57.52C128.2 52.2933 128.6 48 129.4 44.64C130.2 41.28 131.48 38.6933 133.24 36.88C135.053 35.0133 137.427 33.7333 140.36 33.04C143.347 32.2933 147 31.92 151.32 31.92C154.68 31.92 157.587 32.0533 160.04 32.32C162.493 32.5333 165 32.9333 167.56 33.52V43.92L167.32 44.08C165.08 43.5467 162.92 43.1733 160.84 42.96C158.76 42.6933 156.2 42.56 153.16 42.56C150.707 42.56 148.68 42.7467 147.08 43.12C145.533 43.44 144.307 44.1067 143.4 45.12C142.493 46.1333 141.853 47.6267 141.48 49.6C141.16 51.5733 141 54.2133 141 57.52C141 60.9867 141.16 63.7867 141.48 65.92C141.853 68 142.493 69.5733 143.4 70.64C144.307 71.7067 145.533 72.4267 147.08 72.8C148.68 73.1733 150.707 73.36 153.16 73.36C156.147 73.36 158.68 73.28 160.76 73.12C162.893 72.9067 165.027 72.5333 167.16 72L167.56 72.32ZM171.531 64.08C171.531 56.9333 173.051 51.7867 176.091 48.64C179.131 45.4933 184.278 43.92 191.531 43.92C196.385 43.92 200.278 44.6133 203.211 46C206.145 47.3867 208.251 49.5733 209.531 52.56C210.865 55.4933 211.531 59.3333 211.531 64.08C211.531 68.7733 210.865 72.5867 209.531 75.52C208.251 78.4533 206.145 80.6133 203.211 82C200.278 83.3333 196.385 84 191.531 84C184.278 84 179.131 82.4533 176.091 79.36C173.051 76.2133 171.531 71.12 171.531 64.08ZM191.531 73.04C194.625 73.04 196.705 72.3733 197.771 71.04C198.891 69.6533 199.451 67.2533 199.451 63.84C199.451 60.5867 198.891 58.2667 197.771 56.88C196.705 55.44 194.625 54.72 191.531 54.72C188.545 54.72 186.465 55.44 185.291 56.88C184.171 58.2667 183.611 60.5867 183.611 63.84C183.611 67.2533 184.171 69.6533 185.291 71.04C186.465 72.3733 188.545 73.04 191.531 73.04ZM231.116 83.28H218.316V29.44H231.116V83.28ZM253.538 83.28H240.738V29.44H253.538V83.28ZM277.959 43.92C283.079 43.92 287.213 44.4533 290.359 45.52C293.506 46.5867 295.799 48.56 297.239 51.44C298.733 54.2667 299.479 58.3733 299.479 63.76V83.28H287.879L287.479 79.6H287.239C286.226 80.9333 284.653 82 282.519 82.8C280.386 83.6 277.613 84 274.199 84C264.973 84 260.359 79.68 260.359 71.04C260.359 67.36 261.559 64.48 263.959 62.4C266.413 60.2667 270.253 59.2 275.479 59.2H287.319C286.946 56.96 285.986 55.4667 284.439 54.72C282.893 53.92 280.253 53.52 276.519 53.52C274.173 53.52 271.853 53.7067 269.559 54.08C267.319 54.4 265.346 54.7733 263.639 55.2L263.399 55.04L263.479 45.76C264.546 45.44 265.906 45.1467 267.559 44.88C269.213 44.56 270.946 44.32 272.759 44.16C274.626 44 276.359 43.92 277.959 43.92ZM277.479 74.56C280.786 74.56 283.266 74.16 284.919 73.36C286.573 72.5067 287.426 71.1733 287.479 69.36V67.36H278.439C276.093 67.36 274.439 67.7067 273.479 68.4C272.573 69.04 272.119 69.92 272.119 71.04C272.119 72.3733 272.599 73.3067 273.559 73.84C274.519 74.32 275.826 74.56 277.479 74.56ZM347.367 62.08C347.367 69.28 345.9 74.7467 342.967 78.48C340.034 82.16 335.047 84 328.007 84C324.06 84 320.38 83.8667 316.967 83.6C313.607 83.28 310.647 82.9067 308.087 82.48L307.847 82.32V29.44H320.647V50.32H320.967C321.714 48.4 322.94 46.8533 324.647 45.68C326.407 44.5067 328.887 43.92 332.087 43.92C342.274 43.92 347.367 49.9733 347.367 62.08ZM320.647 63.44V72.8C321.927 73.0133 323.42 73.12 325.127 73.12C327.634 73.12 329.58 72.9067 330.967 72.48C332.407 72 333.42 71.0933 334.007 69.76C334.594 68.4267 334.887 66.5067 334.887 64C334.887 60.8533 334.434 58.5333 333.527 57.04C332.62 55.5467 330.754 54.8 327.927 54.8C325.794 54.8 324.034 55.4667 322.647 56.8C321.314 58.08 320.647 60.2933 320.647 63.44ZM390.975 72.4V83.28H354.175V32.64H366.975V72.4H390.975ZM408.677 29.84C408.837 31.76 408.917 33.36 408.917 34.64C408.917 35.3867 408.89 36.16 408.837 36.96C408.837 37.7067 408.784 38.56 408.677 39.52C407.557 39.7333 406.464 39.8933 405.397 40C404.33 40.1067 403.264 40.16 402.197 40.16C401.184 40.16 400.144 40.1067 399.077 40C398.064 39.8933 397.024 39.7333 395.957 39.52C395.85 38.6133 395.77 37.7867 395.717 37.04C395.664 36.24 395.637 35.4667 395.637 34.72C395.637 34.0267 395.664 33.28 395.717 32.48C395.77 31.68 395.85 30.8 395.957 29.84C397.024 29.5733 398.09 29.4133 399.157 29.36C400.277 29.2533 401.37 29.2 402.437 29.2C403.45 29.2 404.464 29.2533 405.477 29.36C406.544 29.4133 407.61 29.5733 408.677 29.84ZM408.677 83.28H395.877V44.32H408.677V83.28ZM430.334 83.28H417.534V44.32H429.694L430.334 51.44H430.574C431.321 49.04 432.654 47.2 434.574 45.92C436.494 44.5867 439.161 43.92 442.574 43.92C447.214 43.92 450.628 45.2267 452.814 47.84C455.054 50.4533 456.174 54.9867 456.174 61.44V83.28H443.374L443.294 63.92C443.294 60.9333 442.841 58.8 441.934 57.52C441.028 56.24 439.321 55.6 436.814 55.6C434.468 55.6 432.814 56.1867 431.854 57.36C430.894 58.48 430.388 60.4267 430.334 63.2V83.28ZM477.756 83.28H464.956V29.44H477.756V60.8H477.916L487.996 44.32H502.076V44.64L490.236 63.04V63.36L503.996 83.28H489.276L477.996 65.28L477.756 65.2V83.28Z" fill="url(#paint0_linear_1619_2022)"/>
<g filter="url(#filter0_i_1619_2022)">
<path d="M40.8923 9.90181C37.9657 13.0289 33.5137 14.4314 29.2291 13.5543C22.1165 12.0985 15.256 16.8976 14.4862 23.8663C14.0237 28.0582 11.2795 31.6974 7.27608 33.4091C0.625933 36.2529 -1.99244 44.0304 1.64749 50.0962C3.83162 53.7487 3.83162 58.251 1.64749 61.9038C-1.99244 67.9696 0.624905 75.7335 7.27608 78.5909C11.2806 80.3027 14.0249 83.9418 14.4862 88.1337C15.2417 95.1024 22.1023 99.9014 29.2291 98.4456C33.5137 97.5699 37.9515 98.9578 40.8923 102.098C45.7641 107.301 54.2487 107.301 59.1078 102.098C62.0343 98.9711 66.4863 97.5686 70.7709 98.4456C77.8835 99.9015 84.744 95.1024 85.5138 88.1337C85.9763 83.9418 88.7205 80.3026 92.7239 78.5909C99.3741 75.7471 101.992 67.9696 98.3525 61.9038C96.1684 58.2513 96.1684 53.749 98.3525 50.0962C101.992 44.0304 99.3751 36.2665 92.7239 33.4091C88.7194 31.6973 85.9751 28.0582 85.5138 23.8663C84.7583 16.8976 77.8977 12.0986 70.7709 13.5543C66.4863 14.4301 62.0485 13.0422 59.1078 9.90181C54.2501 4.6994 45.7652 4.6994 40.8923 9.90181Z" fill="url(#paint1_linear_1619_2022)"/>
</g>
<path d="M41.2568 10.2432C45.9326 5.25141 54.0825 5.25279 58.7422 10.2432H58.7432C61.8052 13.5131 66.4199 14.9538 70.8711 14.0439C77.7289 12.6432 84.2948 17.264 85.0166 23.9199V23.9209C85.4984 28.2986 88.3632 32.088 92.5273 33.8682C98.912 36.6114 101.401 44.0441 97.9238 49.8389V49.8398C95.6452 53.6507 95.6452 58.3496 97.9238 62.1602V62.1611C101.401 67.9565 98.9099 75.4015 92.5273 78.1309C88.3641 79.9109 85.4995 83.7015 85.0166 88.0791C84.281 94.7366 77.7139 99.3567 70.8711 97.9561C66.4194 97.0449 61.7908 98.5005 58.7432 101.757H58.7422C54.081 106.747 45.9314 106.748 41.2568 101.757C38.1948 98.4869 33.5801 97.0462 29.1289 97.9561C22.2711 99.3568 15.7052 94.736 14.9834 88.0801V88.0791L14.9307 87.6699C14.3206 83.4661 11.5057 79.8553 7.47168 78.1309C1.08787 75.3872 -1.40083 67.9555 2.07617 62.1611V62.1602C4.35478 58.3493 4.3548 53.6504 2.07617 49.8398V49.8389C-1.3472 44.1339 1.01373 36.8301 7.17676 34L7.47266 33.8691C11.6359 32.0891 14.5005 28.2985 14.9834 23.9209C15.719 17.2634 22.2861 12.6433 29.1289 14.0439C33.5806 14.9551 38.2092 13.4995 41.2568 10.2432Z" stroke="white" stroke-opacity="0.2"/>
<g clip-path="url(#clip0_1619_2022)" filter="url(#filter1_diii_1619_2022)">
<g filter="url(#filter2_d_1619_2022)">
<path d="M73.4823 32.5129C67.5151 26.5478 57.8039 26.5478 51.8364 32.5129L43.232 41.1199C46.9277 40.4399 50.7825 40.8926 54.2595 42.4602L58.0208 38.7014C60.5791 36.1431 64.7402 36.1431 67.2966 38.7014C69.8549 41.2552 69.8549 45.4189 67.2966 47.9772L63.5379 51.7359L61.0212 54.2552L58.0213 57.253C56.6851 58.5892 54.9096 59.2101 53.1538 59.1487C51.87 59.1049 50.6061 58.6787 49.5216 57.8893C49.2551 57.6925 48.986 57.4957 48.7454 57.253C48.5028 57.0104 48.306 56.7459 48.1091 56.4769C46.8783 55.8452 45.33 56.0288 44.3 57.0608L40.4976 60.8613C41.0815 61.7753 41.7635 62.6415 42.5595 63.437C43.3555 64.235 44.2237 64.9151 45.1378 65.4989C46.1286 66.1352 47.1758 66.6362 48.2602 67.0142C52.172 68.4027 56.53 68.1576 60.278 66.2706C61.693 65.5575 63.0266 64.6176 64.2077 63.4345L64.8832 62.759L73.4876 54.1567C79.4523 48.1962 79.4523 38.4822 73.4825 32.5135L73.4823 32.5129Z" fill="url(#paint2_linear_1619_2022)"/>
<path d="M45.7413 69.5359L41.98 73.2946C39.4217 75.8529 35.2606 75.8529 32.7021 73.2946C30.1438 70.7363 30.1438 66.5771 32.7021 64.0188L36.4635 60.2555L38.9801 57.741L41.98 54.7432C43.3162 53.407 45.0917 52.782 46.8476 52.8475C48.1313 52.8912 49.3952 53.3134 50.4797 54.1068C50.7462 54.3037 51.0153 54.5005 51.2559 54.7431C51.4985 54.9817 51.6953 55.2502 51.8922 55.5193C53.123 56.151 54.6713 55.9633 55.7013 54.9333L59.5018 51.1328C58.9179 50.2188 58.2379 49.3526 57.4398 48.5572C56.6459 47.7591 55.7781 47.0745 54.8642 46.4952C53.8759 45.8589 52.8262 45.3579 51.7418 44.9754C47.8299 43.5914 43.472 43.834 39.7239 45.7231C38.3069 46.4362 36.9754 47.3761 35.7923 48.5591L35.1189 49.2305L26.5145 57.8376C20.5473 63.8047 20.5473 73.5159 26.5145 79.4808C32.4816 85.4506 42.1928 85.4506 48.1603 79.4808L56.7647 70.8784C53.0711 71.5559 49.2182 71.0992 45.7413 69.5357L45.7413 69.5359Z" fill="url(#paint3_linear_1619_2022)"/>
</g>
<path d="M30.2564 44.9502C30.6996 42.4032 31.4096 41.6934 33.9566 41.25C34.0981 41.25 34.2128 41.1352 34.2128 40.9937C34.2128 40.8522 34.0981 40.7375 33.9566 40.7375C31.4043 40.3044 30.6945 39.5946 30.2564 37.0474C30.2564 36.9058 30.1417 36.791 30.0002 36.791C29.8586 36.791 29.7438 36.9058 29.7438 37.0474C29.3056 39.5944 28.5958 40.3042 26.0488 40.7423C25.9073 40.7423 25.7925 40.8572 25.7925 40.9987C25.7925 41.1402 25.9073 41.2549 26.0488 41.2549C28.5959 41.6982 29.3057 42.4081 29.749 44.9551C29.7682 45.0813 29.8773 45.1739 30.0049 45.1727C30.1325 45.1714 30.2397 45.0764 30.2564 44.95L30.2564 44.9502Z" fill="url(#paint4_linear_1619_2022)"/>
<path d="M38.6923 33.8643C39.3129 30.2984 40.3068 29.3047 43.8726 28.684C44.0707 28.684 44.2313 28.5233 44.2313 28.3251C44.2313 28.127 44.0707 27.9664 43.8726 27.9664C40.2994 27.3601 39.3057 26.3664 38.6923 22.8003C38.6923 22.6022 38.5318 22.4414 38.3336 22.4414C38.1355 22.4414 37.9747 22.6022 37.9747 22.8003C37.3613 26.3662 36.3676 27.3599 32.8018 27.9733C32.6036 27.9733 32.4429 28.134 32.4429 28.3322C32.4429 28.5303 32.6036 28.6909 32.8018 28.6909C36.3677 29.3114 37.3613 30.3053 37.982 33.8711C38.0089 34.0477 38.1617 34.1775 38.3402 34.1757C38.5189 34.174 38.669 34.041 38.6923 33.864L38.6923 33.8643Z" fill="url(#paint5_linear_1619_2022)"/>
</g>
<defs>
<filter id="filter0_i_1619_2022" x="0" y="6" width="100" height="104" filterUnits="userSpaceOnUse" color-interpolation-filters="sRGB">
<feFlood flood-opacity="0" result="BackgroundImageFix"/>
<feBlend mode="normal" in="SourceGraphic" in2="BackgroundImageFix" result="shape"/>
<feColorMatrix in="SourceAlpha" type="matrix" values="0 0 0 0 0 0 0 0 0 0 0 0 0 0 0 0 0 0 127 0" result="hardAlpha"/>
<feOffset dy="4"/>
<feGaussianBlur stdDeviation="2"/>
<feComposite in2="hardAlpha" operator="arithmetic" k2="-1" k3="1"/>
<feColorMatrix type="matrix" values="0 0 0 0 1 0 0 0 0 1 0 0 0 0 1 0 0 0 0.25 0"/>
<feBlend mode="normal" in2="shape" result="effect1_innerShadow_1619_2022"/>
</filter>
<filter id="filter1_diii_1619_2022" x="11.667" y="19.666" width="76.6665" height="76.666" filterUnits="userSpaceOnUse" color-interpolation-filters="sRGB">
<feFlood flood-opacity="0" result="BackgroundImageFix"/>
<feColorMatrix in="SourceAlpha" type="matrix" values="0 0 0 0 0 0 0 0 0 0 0 0 0 0 0 0 0 0 127 0" result="hardAlpha"/>
<feOffset dy="2"/>
<feGaussianBlur stdDeviation="2.5"/>
<feComposite in2="hardAlpha" operator="out"/>
<feColorMatrix type="matrix" values="0 0 0 0 0.290196 0 0 0 0 0.227451 0 0 0 0 1 0 0 0 0.25 0"/>
<feBlend mode="normal" in2="BackgroundImageFix" result="effect1_dropShadow_1619_2022"/>
<feBlend mode="normal" in="SourceGraphic" in2="effect1_dropShadow_1619_2022" result="shape"/>
<feColorMatrix in="SourceAlpha" type="matrix" values="0 0 0 0 0 0 0 0 0 0 0 0 0 0 0 0 0 0 127 0" result="hardAlpha"/>
<feOffset dy="-2"/>
<feGaussianBlur stdDeviation="1"/>
<feComposite in2="hardAlpha" operator="arithmetic" k2="-1" k3="1"/>
<feColorMatrix type="matrix" values="0 0 0 0 0 0 0 0 0 0.258824 0 0 0 0 0.537255 0 0 0 0.15 0"/>
<feBlend mode="normal" in2="shape" result="effect2_innerShadow_1619_2022"/>
<feColorMatrix in="SourceAlpha" type="matrix" values="0 0 0 0 0 0 0 0 0 0 0 0 0 0 0 0 0 0 127 0" result="hardAlpha"/>
<feOffset dy="1"/>
<feGaussianBlur stdDeviation="0.5"/>
<feComposite in2="hardAlpha" operator="arithmetic" k2="-1" k3="1"/>
<feColorMatrix type="matrix" values="0 0 0 0 1 0 0 0 0 1 0 0 0 0 1 0 0 0 0.1 0"/>
<feBlend mode="normal" in2="effect2_innerShadow_1619_2022" result="effect3_innerShadow_1619_2022"/>
<feColorMatrix in="SourceAlpha" type="matrix" values="0 0 0 0 0 0 0 0 0 0 0 0 0 0 0 0 0 0 127 0" result="hardAlpha"/>
<feOffset dy="3"/>
<feGaussianBlur stdDeviation="2"/>
<feComposite in2="hardAlpha" operator="arithmetic" k2="-1" k3="1"/>
<feColorMatrix type="matrix" values="0 0 0 0 0.87451 0 0 0 0 0.933333 0 0 0 0 1 0 0 0 0.1 0"/>
<feBlend mode="normal" in2="effect3_innerShadow_1619_2022" result="effect4_innerShadow_1619_2022"/>
</filter>
<filter id="filter2_d_1619_2022" x="18.0391" y="28.0391" width="63.9214" height="63.9199" filterUnits="userSpaceOnUse" color-interpolation-filters="sRGB">
<feFlood flood-opacity="0" result="BackgroundImageFix"/>
<feColorMatrix in="SourceAlpha" type="matrix" values="0 0 0 0 0 0 0 0 0 0 0 0 0 0 0 0 0 0 127 0" result="hardAlpha"/>
<feOffset dy="4"/>
<feGaussianBlur stdDeviation="2"/>
<feComposite in2="hardAlpha" operator="out"/>
<feColorMatrix type="matrix" values="0 0 0 0 0.464441 0 0 0 0 0.583902 0 0 0 0 0.675255 0 0 0 0.25 0"/>
<feBlend mode="normal" in2="BackgroundImageFix" result="effect1_dropShadow_1619_2022"/>
<feBlend mode="normal" in="SourceGraphic" in2="effect1_dropShadow_1619_2022" result="shape"/>
</filter>
<linearGradient id="paint0_linear_1619_2022" x1="94.5" y1="15" x2="529" y2="56" gradientUnits="userSpaceOnUse">
<stop offset="0.531485" stop-color="#1F2124"/>
</linearGradient>
<linearGradient id="paint1_linear_1619_2022" x1="19" y1="15" x2="93" y2="113.5" gradientUnits="userSpaceOnUse">
<stop stop-color="#3243FF"/>
<stop offset="0.621744" stop-color="#1D8CF3"/>
<stop offset="1" stop-color="#0AFFEF"/>
</linearGradient>
<linearGradient id="paint2_linear_1619_2022" x1="74.861" y1="42.0284" x2="47.8856" y2="67.3808" gradientUnits="userSpaceOnUse">
<stop stop-color="white"/>
<stop offset="1" stop-color="white" stop-opacity="0.75"/>
</linearGradient>
<linearGradient id="paint3_linear_1619_2022" x1="56.4023" y1="58.0848" x2="29.4239" y2="83.4368" gradientUnits="userSpaceOnUse">
<stop stop-color="white"/>
<stop offset="1" stop-color="white" stop-opacity="0.75"/>
</linearGradient>
<linearGradient id="paint4_linear_1619_2022" x1="30.0026" y1="36.791" x2="30.0026" y2="45.1727" gradientUnits="userSpaceOnUse">
<stop stop-color="white"/>
<stop offset="1" stop-color="white" stop-opacity="0.75"/>
</linearGradient>
<linearGradient id="paint5_linear_1619_2022" x1="38.3371" y1="22.4414" x2="38.3371" y2="34.1758" gradientUnits="userSpaceOnUse">
<stop stop-color="white"/>
<stop offset="1" stop-color="white" stop-opacity="0.75"/>
</linearGradient>
<clipPath id="clip0_1619_2022">
<rect width="66.6667" height="66.6667" fill="white" transform="translate(16.667 22.666)"/>
</clipPath>
</defs>
</svg>
