<svg width="100" height="100" viewBox="0 0 100 100" fill="none" xmlns="http://www.w3.org/2000/svg">
<g filter="url(#filter0_i_1622_2134)">
<path d="M40.8923 3.90181C37.9657 7.02888 33.5137 8.43135 29.2291 7.55434C22.1165 6.09852 15.256 10.8976 14.4862 17.8663C14.0237 22.0582 11.2795 25.6974 7.27608 27.4091C0.625933 30.2529 -1.99244 38.0304 1.64749 44.0962C3.83162 47.7487 3.83162 52.251 1.64749 55.9038C-1.99244 61.9696 0.624905 69.7335 7.27608 72.5909C11.2806 74.3027 14.0249 77.9418 14.4862 82.1337C15.2417 89.1024 22.1023 93.9014 29.2291 92.4456C33.5137 91.5699 37.9515 92.9578 40.8923 96.0982C45.7641 101.301 54.2487 101.301 59.1078 96.0982C62.0343 92.9711 66.4863 91.5686 70.7709 92.4456C77.8835 93.9015 84.744 89.1024 85.5138 82.1337C85.9763 77.9418 88.7205 74.3026 92.7239 72.5909C99.3741 69.7471 101.992 61.9696 98.3525 55.9038C96.1684 52.2513 96.1684 47.749 98.3525 44.0962C101.992 38.0304 99.3751 30.2665 92.7239 27.4091C88.7194 25.6973 85.9751 22.0582 85.5138 17.8663C84.7583 10.8976 77.8977 6.09863 70.7709 7.55434C66.4863 8.43012 62.0485 7.04223 59.1078 3.90181C54.2501 -1.3006 45.7652 -1.3006 40.8923 3.90181Z" fill="url(#paint0_linear_1622_2134)"/>
</g>
<path d="M41.2568 4.24316C45.9326 -0.748587 54.0825 -0.747213 58.7422 4.24316H58.7432C61.8052 7.51314 66.4199 8.95377 70.8711 8.04395C77.7289 6.64324 84.2948 11.264 85.0166 17.9199V17.9209C85.4984 22.2986 88.3632 26.088 92.5273 27.8682C98.912 30.6114 101.401 38.0441 97.9238 43.8389V43.8398C95.6452 47.6507 95.6452 52.3496 97.9238 56.1602V56.1611C101.401 61.9565 98.9099 69.4015 92.5273 72.1309C88.3641 73.9109 85.4995 77.7015 85.0166 82.0791C84.281 88.7366 77.7139 93.3567 70.8711 91.9561C66.4194 91.0449 61.7908 92.5005 58.7432 95.7568H58.7422C54.081 100.747 45.9314 100.748 41.2568 95.7568C38.1948 92.4869 33.5801 91.0462 29.1289 91.9561C22.2711 93.3568 15.7052 88.736 14.9834 82.0801V82.0791L14.9307 81.6699C14.3206 77.4661 11.5057 73.8553 7.47168 72.1309C1.08787 69.3872 -1.40083 61.9555 2.07617 56.1611V56.1602C4.35478 52.3493 4.3548 47.6504 2.07617 43.8398V43.8389C-1.3472 38.1339 1.01373 30.8301 7.17676 28L7.47266 27.8691C11.6359 26.0891 14.5005 22.2985 14.9834 17.9209C15.719 11.2634 22.2861 6.64334 29.1289 8.04395C33.5806 8.95512 38.2092 7.49952 41.2568 4.24316Z" stroke="white" stroke-opacity="0.2"/>
<g clip-path="url(#clip0_1622_2134)" filter="url(#filter1_diii_1622_2134)">
<g filter="url(#filter2_d_1622_2134)">
<path d="M73.4823 26.5129C67.5151 20.5478 57.8039 20.5478 51.8364 26.5129L43.232 35.1199C46.9277 34.4399 50.7825 34.8926 54.2595 36.4602L58.0208 32.7014C60.5791 30.1431 64.7402 30.1431 67.2966 32.7014C69.8549 35.2552 69.8549 39.4189 67.2966 41.9772L63.5379 45.7359L61.0212 48.2552L58.0213 51.253C56.6851 52.5892 54.9096 53.2101 53.1538 53.1487C51.87 53.1049 50.6061 52.6787 49.5216 51.8893C49.2551 51.6925 48.986 51.4957 48.7454 51.253C48.5028 51.0104 48.306 50.7459 48.1091 50.4769C46.8783 49.8452 45.33 50.0288 44.3 51.0608L40.4976 54.8613C41.0815 55.7753 41.7635 56.6415 42.5595 57.437C43.3555 58.235 44.2237 58.9151 45.1378 59.4989C46.1286 60.1352 47.1758 60.6362 48.2602 61.0142C52.172 62.4027 56.53 62.1576 60.278 60.2706C61.693 59.5575 63.0266 58.6176 64.2077 57.4345L64.8832 56.759L73.4876 48.1567C79.4523 42.1962 79.4523 32.4822 73.4825 26.5135L73.4823 26.5129Z" fill="url(#paint1_linear_1622_2134)"/>
<path d="M45.7413 63.5359L41.98 67.2946C39.4217 69.8529 35.2606 69.8529 32.7021 67.2946C30.1438 64.7363 30.1438 60.5771 32.7021 58.0188L36.4635 54.2555L38.9801 51.741L41.98 48.7432C43.3162 47.407 45.0917 46.782 46.8476 46.8475C48.1313 46.8912 49.3952 47.3134 50.4797 48.1068C50.7462 48.3037 51.0153 48.5005 51.2559 48.7431C51.4985 48.9817 51.6953 49.2502 51.8922 49.5193C53.123 50.151 54.6713 49.9633 55.7013 48.9333L59.5018 45.1328C58.9179 44.2188 58.2379 43.3526 57.4398 42.5572C56.6459 41.7591 55.7781 41.0745 54.8642 40.4952C53.8759 39.8589 52.8262 39.3579 51.7418 38.9754C47.8299 37.5914 43.472 37.834 39.7239 39.7231C38.3069 40.4362 36.9754 41.3761 35.7923 42.5591L35.1189 43.2305L26.5145 51.8376C20.5473 57.8047 20.5473 67.5159 26.5145 73.4808C32.4816 79.4506 42.1928 79.4506 48.1603 73.4808L56.7647 64.8784C53.0711 65.5559 49.2182 65.0992 45.7413 63.5357L45.7413 63.5359Z" fill="url(#paint2_linear_1622_2134)"/>
</g>
<path d="M30.2564 38.9502C30.6996 36.4032 31.4096 35.6934 33.9566 35.25C34.0981 35.25 34.2128 35.1352 34.2128 34.9937C34.2128 34.8522 34.0981 34.7375 33.9566 34.7375C31.4043 34.3044 30.6945 33.5946 30.2564 31.0474C30.2564 30.9058 30.1417 30.791 30.0002 30.791C29.8586 30.791 29.7438 30.9058 29.7438 31.0474C29.3056 33.5944 28.5958 34.3042 26.0488 34.7423C25.9073 34.7423 25.7925 34.8572 25.7925 34.9987C25.7925 35.1402 25.9073 35.2549 26.0488 35.2549C28.5959 35.6982 29.3057 36.4081 29.749 38.9551C29.7682 39.0813 29.8773 39.1739 30.0049 39.1727C30.1325 39.1714 30.2397 39.0764 30.2564 38.95L30.2564 38.9502Z" fill="url(#paint3_linear_1622_2134)"/>
<path d="M38.6923 27.8643C39.3129 24.2984 40.3068 23.3047 43.8726 22.684C44.0707 22.684 44.2313 22.5233 44.2313 22.3251C44.2313 22.127 44.0707 21.9664 43.8726 21.9664C40.2994 21.3601 39.3057 20.3664 38.6923 16.8003C38.6923 16.6022 38.5318 16.4414 38.3336 16.4414C38.1355 16.4414 37.9747 16.6022 37.9747 16.8003C37.3613 20.3662 36.3676 21.3599 32.8018 21.9733C32.6036 21.9733 32.4429 22.134 32.4429 22.3322C32.4429 22.5303 32.6036 22.6909 32.8018 22.6909C36.3677 23.3114 37.3613 24.3053 37.982 27.8711C38.0089 28.0477 38.1617 28.1775 38.3402 28.1757C38.5189 28.174 38.669 28.041 38.6923 27.864L38.6923 27.8643Z" fill="url(#paint4_linear_1622_2134)"/>
</g>
<defs>
<filter id="filter0_i_1622_2134" x="0" y="0" width="100" height="104" filterUnits="userSpaceOnUse" color-interpolation-filters="sRGB">
<feFlood flood-opacity="0" result="BackgroundImageFix"/>
<feBlend mode="normal" in="SourceGraphic" in2="BackgroundImageFix" result="shape"/>
<feColorMatrix in="SourceAlpha" type="matrix" values="0 0 0 0 0 0 0 0 0 0 0 0 0 0 0 0 0 0 127 0" result="hardAlpha"/>
<feOffset dy="4"/>
<feGaussianBlur stdDeviation="2"/>
<feComposite in2="hardAlpha" operator="arithmetic" k2="-1" k3="1"/>
<feColorMatrix type="matrix" values="0 0 0 0 1 0 0 0 0 1 0 0 0 0 1 0 0 0 0.25 0"/>
<feBlend mode="normal" in2="shape" result="effect1_innerShadow_1622_2134"/>
</filter>
<filter id="filter1_diii_1622_2134" x="11.667" y="13.666" width="76.6665" height="76.666" filterUnits="userSpaceOnUse" color-interpolation-filters="sRGB">
<feFlood flood-opacity="0" result="BackgroundImageFix"/>
<feColorMatrix in="SourceAlpha" type="matrix" values="0 0 0 0 0 0 0 0 0 0 0 0 0 0 0 0 0 0 127 0" result="hardAlpha"/>
<feOffset dy="2"/>
<feGaussianBlur stdDeviation="2.5"/>
<feComposite in2="hardAlpha" operator="out"/>
<feColorMatrix type="matrix" values="0 0 0 0 0.290196 0 0 0 0 0.227451 0 0 0 0 1 0 0 0 0.25 0"/>
<feBlend mode="normal" in2="BackgroundImageFix" result="effect1_dropShadow_1622_2134"/>
<feBlend mode="normal" in="SourceGraphic" in2="effect1_dropShadow_1622_2134" result="shape"/>
<feColorMatrix in="SourceAlpha" type="matrix" values="0 0 0 0 0 0 0 0 0 0 0 0 0 0 0 0 0 0 127 0" result="hardAlpha"/>
<feOffset dy="-2"/>
<feGaussianBlur stdDeviation="1"/>
<feComposite in2="hardAlpha" operator="arithmetic" k2="-1" k3="1"/>
<feColorMatrix type="matrix" values="0 0 0 0 0 0 0 0 0 0.258824 0 0 0 0 0.537255 0 0 0 0.15 0"/>
<feBlend mode="normal" in2="shape" result="effect2_innerShadow_1622_2134"/>
<feColorMatrix in="SourceAlpha" type="matrix" values="0 0 0 0 0 0 0 0 0 0 0 0 0 0 0 0 0 0 127 0" result="hardAlpha"/>
<feOffset dy="1"/>
<feGaussianBlur stdDeviation="0.5"/>
<feComposite in2="hardAlpha" operator="arithmetic" k2="-1" k3="1"/>
<feColorMatrix type="matrix" values="0 0 0 0 1 0 0 0 0 1 0 0 0 0 1 0 0 0 0.1 0"/>
<feBlend mode="normal" in2="effect2_innerShadow_1622_2134" result="effect3_innerShadow_1622_2134"/>
<feColorMatrix in="SourceAlpha" type="matrix" values="0 0 0 0 0 0 0 0 0 0 0 0 0 0 0 0 0 0 127 0" result="hardAlpha"/>
<feOffset dy="3"/>
<feGaussianBlur stdDeviation="2"/>
<feComposite in2="hardAlpha" operator="arithmetic" k2="-1" k3="1"/>
<feColorMatrix type="matrix" values="0 0 0 0 0.87451 0 0 0 0 0.933333 0 0 0 0 1 0 0 0 0.1 0"/>
<feBlend mode="normal" in2="effect3_innerShadow_1622_2134" result="effect4_innerShadow_1622_2134"/>
</filter>
<filter id="filter2_d_1622_2134" x="18.0391" y="22.0391" width="63.9214" height="63.9199" filterUnits="userSpaceOnUse" color-interpolation-filters="sRGB">
<feFlood flood-opacity="0" result="BackgroundImageFix"/>
<feColorMatrix in="SourceAlpha" type="matrix" values="0 0 0 0 0 0 0 0 0 0 0 0 0 0 0 0 0 0 127 0" result="hardAlpha"/>
<feOffset dy="4"/>
<feGaussianBlur stdDeviation="2"/>
<feComposite in2="hardAlpha" operator="out"/>
<feColorMatrix type="matrix" values="0 0 0 0 0.464441 0 0 0 0 0.583902 0 0 0 0 0.675255 0 0 0 0.25 0"/>
<feBlend mode="normal" in2="BackgroundImageFix" result="effect1_dropShadow_1622_2134"/>
<feBlend mode="normal" in="SourceGraphic" in2="effect1_dropShadow_1622_2134" result="shape"/>
</filter>
<linearGradient id="paint0_linear_1622_2134" x1="19" y1="9" x2="93" y2="107.5" gradientUnits="userSpaceOnUse">
<stop stop-color="#3243FF"/>
<stop offset="0.621744" stop-color="#1D8CF3"/>
<stop offset="1" stop-color="#0AFFEF"/>
</linearGradient>
<linearGradient id="paint1_linear_1622_2134" x1="74.861" y1="36.0284" x2="47.8856" y2="61.3808" gradientUnits="userSpaceOnUse">
<stop stop-color="white"/>
<stop offset="1" stop-color="white" stop-opacity="0.75"/>
</linearGradient>
<linearGradient id="paint2_linear_1622_2134" x1="56.4023" y1="52.0848" x2="29.4239" y2="77.4368" gradientUnits="userSpaceOnUse">
<stop stop-color="white"/>
<stop offset="1" stop-color="white" stop-opacity="0.75"/>
</linearGradient>
<linearGradient id="paint3_linear_1622_2134" x1="30.0026" y1="30.791" x2="30.0026" y2="39.1727" gradientUnits="userSpaceOnUse">
<stop stop-color="white"/>
<stop offset="1" stop-color="white" stop-opacity="0.75"/>
</linearGradient>
<linearGradient id="paint4_linear_1622_2134" x1="38.3371" y1="16.4414" x2="38.3371" y2="28.1758" gradientUnits="userSpaceOnUse">
<stop stop-color="white"/>
<stop offset="1" stop-color="white" stop-opacity="0.75"/>
</linearGradient>
<clipPath id="clip0_1622_2134">
<rect width="66.6667" height="66.6667" fill="white" transform="translate(16.667 16.666)"/>
</clipPath>
</defs>
</svg>
