<svg width="524" height="112" viewBox="0 0 524 112" fill="none" xmlns="http://www.w3.org/2000/svg">
<path d="M162.56 72.32V82.4C160 82.9333 157.493 83.3333 155.04 83.6C152.587 83.8667 149.68 84 146.32 84C142 84 138.347 83.6267 135.36 82.88C132.427 82.1333 130.053 80.8267 128.24 78.96C126.48 77.04 125.2 74.3467 124.4 70.88C123.6 67.4133 123.2 62.96 123.2 57.52C123.2 52.2933 123.6 48 124.4 44.64C125.2 41.28 126.48 38.6933 128.24 36.88C130.053 35.0133 132.427 33.7333 135.36 33.04C138.347 32.2933 142 31.92 146.32 31.92C149.68 31.92 152.587 32.0533 155.04 32.32C157.493 32.5333 160 32.9333 162.56 33.52V43.92L162.32 44.08C160.08 43.5467 157.92 43.1733 155.84 42.96C153.76 42.6933 151.2 42.56 148.16 42.56C145.707 42.56 143.68 42.7467 142.08 43.12C140.533 43.44 139.307 44.1067 138.4 45.12C137.493 46.1333 136.853 47.6267 136.48 49.6C136.16 51.5733 136 54.2133 136 57.52C136 60.9867 136.16 63.7867 136.48 65.92C136.853 68 137.493 69.5733 138.4 70.64C139.307 71.7067 140.533 72.4267 142.08 72.8C143.68 73.1733 145.707 73.36 148.16 73.36C151.147 73.36 153.68 73.28 155.76 73.12C157.893 72.9067 160.027 72.5333 162.16 72L162.56 72.32ZM166.531 64.08C166.531 56.9333 168.051 51.7867 171.091 48.64C174.131 45.4933 179.278 43.92 186.531 43.92C191.385 43.92 195.278 44.6133 198.211 46C201.145 47.3867 203.251 49.5733 204.531 52.56C205.865 55.4933 206.531 59.3333 206.531 64.08C206.531 68.7733 205.865 72.5867 204.531 75.52C203.251 78.4533 201.145 80.6133 198.211 82C195.278 83.3333 191.385 84 186.531 84C179.278 84 174.131 82.4533 171.091 79.36C168.051 76.2133 166.531 71.12 166.531 64.08ZM186.531 73.04C189.625 73.04 191.705 72.3733 192.771 71.04C193.891 69.6533 194.451 67.2533 194.451 63.84C194.451 60.5867 193.891 58.2667 192.771 56.88C191.705 55.44 189.625 54.72 186.531 54.72C183.545 54.72 181.465 55.44 180.291 56.88C179.171 58.2667 178.611 60.5867 178.611 63.84C178.611 67.2533 179.171 69.6533 180.291 71.04C181.465 72.3733 183.545 73.04 186.531 73.04ZM226.116 83.28H213.316V29.44H226.116V83.28ZM248.538 83.28H235.738V29.44H248.538V83.28ZM272.959 43.92C278.079 43.92 282.213 44.4533 285.359 45.52C288.506 46.5867 290.799 48.56 292.239 51.44C293.733 54.2667 294.479 58.3733 294.479 63.76V83.28H282.879L282.479 79.6H282.239C281.226 80.9333 279.653 82 277.519 82.8C275.386 83.6 272.613 84 269.199 84C259.973 84 255.359 79.68 255.359 71.04C255.359 67.36 256.559 64.48 258.959 62.4C261.413 60.2667 265.253 59.2 270.479 59.2H282.319C281.946 56.96 280.986 55.4667 279.439 54.72C277.893 53.92 275.253 53.52 271.519 53.52C269.173 53.52 266.853 53.7067 264.559 54.08C262.319 54.4 260.346 54.7733 258.639 55.2L258.399 55.04L258.479 45.76C259.546 45.44 260.906 45.1467 262.559 44.88C264.213 44.56 265.946 44.32 267.759 44.16C269.626 44 271.359 43.92 272.959 43.92ZM272.479 74.56C275.786 74.56 278.266 74.16 279.919 73.36C281.573 72.5067 282.426 71.1733 282.479 69.36V67.36H273.439C271.093 67.36 269.439 67.7067 268.479 68.4C267.573 69.04 267.119 69.92 267.119 71.04C267.119 72.3733 267.599 73.3067 268.559 73.84C269.519 74.32 270.826 74.56 272.479 74.56ZM342.367 62.08C342.367 69.28 340.9 74.7467 337.967 78.48C335.034 82.16 330.047 84 323.007 84C319.06 84 315.38 83.8667 311.967 83.6C308.607 83.28 305.647 82.9067 303.087 82.48L302.847 82.32V29.44H315.647V50.32H315.967C316.714 48.4 317.94 46.8533 319.647 45.68C321.407 44.5067 323.887 43.92 327.087 43.92C337.274 43.92 342.367 49.9733 342.367 62.08ZM315.647 63.44V72.8C316.927 73.0133 318.42 73.12 320.127 73.12C322.634 73.12 324.58 72.9067 325.967 72.48C327.407 72 328.42 71.0933 329.007 69.76C329.594 68.4267 329.887 66.5067 329.887 64C329.887 60.8533 329.434 58.5333 328.527 57.04C327.62 55.5467 325.754 54.8 322.927 54.8C320.794 54.8 319.034 55.4667 317.647 56.8C316.314 58.08 315.647 60.2933 315.647 63.44ZM385.975 72.4V83.28H349.175V32.64H361.975V72.4H385.975ZM403.677 29.84C403.837 31.76 403.917 33.36 403.917 34.64C403.917 35.3867 403.89 36.16 403.837 36.96C403.837 37.7067 403.784 38.56 403.677 39.52C402.557 39.7333 401.464 39.8933 400.397 40C399.33 40.1067 398.264 40.16 397.197 40.16C396.184 40.16 395.144 40.1067 394.077 40C393.064 39.8933 392.024 39.7333 390.957 39.52C390.85 38.6133 390.77 37.7867 390.717 37.04C390.664 36.24 390.637 35.4667 390.637 34.72C390.637 34.0267 390.664 33.28 390.717 32.48C390.77 31.68 390.85 30.8 390.957 29.84C392.024 29.5733 393.09 29.4133 394.157 29.36C395.277 29.2533 396.37 29.2 397.437 29.2C398.45 29.2 399.464 29.2533 400.477 29.36C401.544 29.4133 402.61 29.5733 403.677 29.84ZM403.677 83.28H390.877V44.32H403.677V83.28ZM425.334 83.28H412.534V44.32H424.694L425.334 51.44H425.574C426.321 49.04 427.654 47.2 429.574 45.92C431.494 44.5867 434.161 43.92 437.574 43.92C442.214 43.92 445.628 45.2267 447.814 47.84C450.054 50.4533 451.174 54.9867 451.174 61.44V83.28H438.374L438.294 63.92C438.294 60.9333 437.841 58.8 436.934 57.52C436.028 56.24 434.321 55.6 431.814 55.6C429.468 55.6 427.814 56.1867 426.854 57.36C425.894 58.48 425.388 60.4267 425.334 63.2V83.28ZM472.756 83.28H459.956V29.44H472.756V60.8H472.916L482.996 44.32H497.076V44.64L485.236 63.04V63.36L498.996 83.28H484.276L472.996 65.28L472.756 65.2V83.28Z" fill="url(#paint0_linear_1619_2022)"/>
<path d="M40.8923 9.90181C37.9657 13.0289 33.5137 14.4314 29.2291 13.5543C22.1165 12.0985 15.256 16.8976 14.4862 23.8663C14.0237 28.0582 11.2795 31.6974 7.27608 33.4091C0.625933 36.2529 -1.99244 44.0304 1.64749 50.0962C3.83162 53.7487 3.83162 58.251 1.64749 61.9038C-1.99244 67.9696 0.624905 75.7335 7.27608 78.5909C11.2806 80.3027 14.0249 83.9418 14.4862 88.1337C15.2417 95.1024 22.1023 99.9014 29.2291 98.4456C33.5137 97.5699 37.9515 98.9578 40.8923 102.098C45.7641 107.301 54.2487 107.301 59.1078 102.098C62.0343 98.9711 66.4863 97.5686 70.7709 98.4456C77.8835 99.9015 84.744 95.1024 85.5138 88.1337C85.9763 83.9418 88.7205 80.3026 92.7239 78.5909C99.3741 75.7471 101.992 67.9696 98.3525 61.9038C96.1684 58.2513 96.1684 53.749 98.3525 50.0962C101.992 44.0304 99.3751 36.2665 92.7239 33.4091C88.7194 31.6973 85.9751 28.0582 85.5138 23.8663C84.7583 16.8976 77.8977 12.0986 70.7709 13.5543C66.4863 14.4301 62.0485 13.0422 59.1078 9.90181C54.2501 4.6994 45.7652 4.6994 40.8923 9.90181Z" fill="url(#paint1_linear_1619_2022)"/>
<g clip-path="url(#clip0_1619_2022)" filter="url(#filter0_diii_1619_2022)">
<g filter="url(#filter1_d_1619_2022)">
<path d="M73.482 32.5129C67.5148 26.5478 57.8036 26.5478 51.8362 32.5129L43.2318 41.1199C46.9275 40.4399 50.7823 40.8926 54.2592 42.4602L58.0206 38.7014C60.5789 36.1431 64.74 36.1431 67.2963 38.7014C69.8547 41.2552 69.8547 45.4189 67.2963 47.9772L63.5376 51.7359L61.021 54.2552L58.0211 57.253C56.6849 58.5892 54.9094 59.2101 53.1535 59.1487C51.8697 59.1049 50.6059 58.6787 49.5214 57.8893C49.2548 57.6925 48.9858 57.4957 48.7452 57.253C48.5026 57.0104 48.3057 56.7459 48.1089 56.4769C46.878 55.8452 45.3297 56.0288 44.2998 57.0608L40.4973 60.8613C41.0812 61.7753 41.7633 62.6415 42.5593 63.437C43.3553 64.235 44.2235 64.9151 45.1375 65.4989C46.1284 66.1352 47.1756 66.6362 48.2599 67.0142C52.1718 68.4027 56.5297 68.1576 60.2778 66.2706C61.6928 65.5575 63.0263 64.6176 64.2075 63.4345L64.8829 62.759L73.4874 54.1567C79.4521 48.1962 79.4521 38.4822 73.4823 32.5135L73.482 32.5129Z" fill="url(#paint2_linear_1619_2022)"/>
<path d="M45.7411 69.5359L41.9797 73.2946C39.4214 75.8529 35.2603 75.8529 32.7019 73.2946C30.1435 70.7363 30.1435 66.5771 32.7019 64.0188L36.4632 60.2555L38.9799 57.741L41.9797 54.7432C43.3159 53.407 45.0915 52.782 46.8473 52.8475C48.1311 52.8912 49.395 53.3134 50.4795 54.1068C50.746 54.3037 51.0151 54.5005 51.2556 54.7431C51.4983 54.9817 51.6951 55.2502 51.8919 55.5193C53.1228 56.151 54.6711 55.9633 55.701 54.9333L59.5016 51.1328C58.9177 50.2188 58.2376 49.3526 57.4396 48.5572C56.6456 47.7591 55.7779 47.0745 54.8639 46.4952C53.8757 45.8589 52.8259 45.3579 51.7415 44.9754C47.8297 43.5914 43.4717 43.834 39.7237 45.7231C38.3066 46.4362 36.9751 47.3761 35.7921 48.5591L35.1186 49.2305L26.5142 57.8376C20.547 63.8047 20.547 73.5159 26.5142 79.4808C32.4814 85.4506 42.1926 85.4506 48.16 79.4808L56.7645 70.8784C53.0708 71.5559 49.218 71.0992 45.741 69.5357L45.7411 69.5359Z" fill="url(#paint3_linear_1619_2022)"/>
</g>
<path d="M30.2564 44.9502C30.6996 42.4032 31.4096 41.6934 33.9566 41.25C34.0981 41.25 34.2128 41.1352 34.2128 40.9937C34.2128 40.8522 34.0981 40.7375 33.9566 40.7375C31.4043 40.3044 30.6945 39.5946 30.2564 37.0474C30.2564 36.9058 30.1417 36.791 30.0002 36.791C29.8586 36.791 29.7438 36.9058 29.7438 37.0474C29.3056 39.5944 28.5958 40.3042 26.0488 40.7423C25.9073 40.7423 25.7925 40.8572 25.7925 40.9987C25.7925 41.1402 25.9073 41.2549 26.0488 41.2549C28.5959 41.6982 29.3057 42.4081 29.749 44.9551C29.7682 45.0813 29.8773 45.1739 30.0049 45.1727C30.1325 45.1714 30.2397 45.0764 30.2564 44.95L30.2564 44.9502Z" fill="url(#paint4_linear_1619_2022)"/>
<path d="M38.6921 33.8643C39.3127 30.2984 40.3066 29.3047 43.8724 28.684C44.0705 28.684 44.2311 28.5233 44.2311 28.3251C44.2311 28.127 44.0705 27.9664 43.8724 27.9664C40.2992 27.3601 39.3055 26.3664 38.6921 22.8003C38.6921 22.6022 38.5315 22.4414 38.3334 22.4414C38.1352 22.4414 37.9745 22.6022 37.9745 22.8003C37.361 26.3662 36.3673 27.3599 32.8015 27.9733C32.6034 27.9733 32.4426 28.134 32.4426 28.3322C32.4426 28.5303 32.6034 28.6909 32.8015 28.6909C36.3674 29.3114 37.3611 30.3053 37.9818 33.8711C38.0087 34.0477 38.1614 34.1775 38.34 34.1757C38.5187 34.174 38.6688 34.041 38.6921 33.864L38.6921 33.8643Z" fill="url(#paint5_linear_1619_2022)"/>
</g>
<defs>
<filter id="filter0_diii_1619_2022" x="11.6667" y="19.666" width="76.6667" height="76.666" filterUnits="userSpaceOnUse" color-interpolation-filters="sRGB">
<feFlood flood-opacity="0" result="BackgroundImageFix"/>
<feColorMatrix in="SourceAlpha" type="matrix" values="0 0 0 0 0 0 0 0 0 0 0 0 0 0 0 0 0 0 127 0" result="hardAlpha"/>
<feOffset dy="2"/>
<feGaussianBlur stdDeviation="2.5"/>
<feComposite in2="hardAlpha" operator="out"/>
<feColorMatrix type="matrix" values="0 0 0 0 0.290196 0 0 0 0 0.227451 0 0 0 0 1 0 0 0 0.25 0"/>
<feBlend mode="normal" in2="BackgroundImageFix" result="effect1_dropShadow_1619_2022"/>
<feBlend mode="normal" in="SourceGraphic" in2="effect1_dropShadow_1619_2022" result="shape"/>
<feColorMatrix in="SourceAlpha" type="matrix" values="0 0 0 0 0 0 0 0 0 0 0 0 0 0 0 0 0 0 127 0" result="hardAlpha"/>
<feOffset dy="-2"/>
<feGaussianBlur stdDeviation="1"/>
<feComposite in2="hardAlpha" operator="arithmetic" k2="-1" k3="1"/>
<feColorMatrix type="matrix" values="0 0 0 0 0 0 0 0 0 0.258824 0 0 0 0 0.537255 0 0 0 0.15 0"/>
<feBlend mode="normal" in2="shape" result="effect2_innerShadow_1619_2022"/>
<feColorMatrix in="SourceAlpha" type="matrix" values="0 0 0 0 0 0 0 0 0 0 0 0 0 0 0 0 0 0 127 0" result="hardAlpha"/>
<feOffset dy="1"/>
<feGaussianBlur stdDeviation="0.5"/>
<feComposite in2="hardAlpha" operator="arithmetic" k2="-1" k3="1"/>
<feColorMatrix type="matrix" values="0 0 0 0 1 0 0 0 0 1 0 0 0 0 1 0 0 0 0.1 0"/>
<feBlend mode="normal" in2="effect2_innerShadow_1619_2022" result="effect3_innerShadow_1619_2022"/>
<feColorMatrix in="SourceAlpha" type="matrix" values="0 0 0 0 0 0 0 0 0 0 0 0 0 0 0 0 0 0 127 0" result="hardAlpha"/>
<feOffset dy="3"/>
<feGaussianBlur stdDeviation="2"/>
<feComposite in2="hardAlpha" operator="arithmetic" k2="-1" k3="1"/>
<feColorMatrix type="matrix" values="0 0 0 0 0.87451 0 0 0 0 0.933333 0 0 0 0 1 0 0 0 0.1 0"/>
<feBlend mode="normal" in2="effect3_innerShadow_1619_2022" result="effect4_innerShadow_1619_2022"/>
</filter>
<filter id="filter1_d_1619_2022" x="18.0388" y="28.0391" width="63.9214" height="63.9199" filterUnits="userSpaceOnUse" color-interpolation-filters="sRGB">
<feFlood flood-opacity="0" result="BackgroundImageFix"/>
<feColorMatrix in="SourceAlpha" type="matrix" values="0 0 0 0 0 0 0 0 0 0 0 0 0 0 0 0 0 0 127 0" result="hardAlpha"/>
<feOffset dy="4"/>
<feGaussianBlur stdDeviation="2"/>
<feComposite in2="hardAlpha" operator="out"/>
<feColorMatrix type="matrix" values="0 0 0 0 0.464441 0 0 0 0 0.583902 0 0 0 0 0.675255 0 0 0 0.25 0"/>
<feBlend mode="normal" in2="BackgroundImageFix" result="effect1_dropShadow_1619_2022"/>
<feBlend mode="normal" in="SourceGraphic" in2="effect1_dropShadow_1619_2022" result="shape"/>
</filter>
<linearGradient id="paint0_linear_1619_2022" x1="89.5" y1="15" x2="524" y2="56" gradientUnits="userSpaceOnUse">
<stop offset="0.531485" stop-color="#1F2124"/>
</linearGradient>
<linearGradient id="paint1_linear_1619_2022" x1="50" y1="6" x2="50" y2="106" gradientUnits="userSpaceOnUse">
<stop stop-color="#4175F9"/>
<stop offset="1" stop-color="#0A2466"/>
</linearGradient>
<linearGradient id="paint2_linear_1619_2022" x1="74.8608" y1="42.0284" x2="47.8854" y2="67.3808" gradientUnits="userSpaceOnUse">
<stop stop-color="white"/>
<stop offset="1" stop-color="white" stop-opacity="0.65"/>
</linearGradient>
<linearGradient id="paint3_linear_1619_2022" x1="56.4021" y1="58.0848" x2="29.4237" y2="83.4368" gradientUnits="userSpaceOnUse">
<stop stop-color="white"/>
<stop offset="1" stop-color="white" stop-opacity="0.65"/>
</linearGradient>
<linearGradient id="paint4_linear_1619_2022" x1="30.0026" y1="36.791" x2="30.0026" y2="45.1727" gradientUnits="userSpaceOnUse">
<stop stop-color="white"/>
<stop offset="1" stop-color="white" stop-opacity="0.65"/>
</linearGradient>
<linearGradient id="paint5_linear_1619_2022" x1="38.3368" y1="22.4414" x2="38.3368" y2="34.1758" gradientUnits="userSpaceOnUse">
<stop stop-color="white"/>
<stop offset="1" stop-color="white" stop-opacity="0.65"/>
</linearGradient>
<clipPath id="clip0_1619_2022">
<rect width="66.6667" height="66.6667" fill="white" transform="translate(16.6667 22.666)"/>
</clipPath>
</defs>
</svg>
