<svg width="533" height="114" viewBox="0 0 533 114" fill="none" xmlns="http://www.w3.org/2000/svg">
<g filter="url(#filter0_d_1616_29592)">
<g clip-path="url(#clip0_1616_29592)">
<rect x="4" y="6" width="100" height="100" rx="15" fill="url(#paint0_linear_1616_29592)"/>
<g clip-path="url(#clip1_1616_29592)" filter="url(#filter1_diii_1616_29592)">
<g filter="url(#filter2_d_1616_29592)">
<path d="M82.1781 27.8178C75.0175 20.6597 63.364 20.6597 56.2031 27.8178L45.8778 38.1462C50.3126 37.3302 54.9384 37.8734 59.1108 39.7545L63.6243 35.2441C66.6943 32.1741 71.6876 32.1741 74.7553 35.2441C77.8253 38.3086 77.8253 43.305 74.7553 46.375L70.2448 50.8855L67.2248 53.9086L63.625 57.5059C62.0215 59.1094 59.8909 59.8545 57.7839 59.7808C56.2433 59.7283 54.7267 59.2168 53.4253 58.2695C53.1055 58.0333 52.7826 57.7971 52.4939 57.506C52.2028 57.2149 51.9665 56.8975 51.7303 56.5746C50.2533 55.8165 48.3953 56.0369 47.1594 57.2753L42.5964 61.8359C43.2971 62.9327 44.1156 63.9722 45.0708 64.9267C46.026 65.8843 47.0678 66.7004 48.1647 67.4011C49.3537 68.1646 50.6103 68.7658 51.9116 69.2194C56.6058 70.8856 61.8353 70.5914 66.333 68.327C68.031 67.4713 69.6313 66.3434 71.0486 64.9237L71.8592 64.1132L82.1845 53.7904C89.3421 46.6377 89.3421 34.981 82.1784 27.8185L82.1781 27.8178Z" fill="url(#paint1_linear_1616_29592)"/>
<path d="M48.889 72.2454L44.3754 76.7559C41.3054 79.8259 36.3121 79.8259 33.242 76.7559C30.172 73.6859 30.172 68.6949 33.242 65.6249L37.7556 61.109L40.7756 58.0915L44.3754 54.4941C45.9788 52.8907 48.1095 52.1407 50.2165 52.2193C51.757 52.2718 53.2737 52.7784 54.5751 53.7305C54.8949 53.9667 55.2178 54.2029 55.5065 54.4941C55.7976 54.7803 56.0338 55.1026 56.27 55.4255C57.7471 56.1835 59.605 55.9583 60.841 54.7223L65.4016 50.1617C64.7009 49.0649 63.8849 48.0255 62.9272 47.0709C61.9744 46.1133 60.9331 45.2917 59.8364 44.5966C58.6505 43.833 57.3908 43.2318 56.0896 42.7728C51.3953 41.112 46.1658 41.4032 41.6681 43.67C39.9677 44.5258 38.3699 45.6536 36.9502 47.0733L36.1421 47.879L25.8168 58.2074C18.6561 65.368 18.6561 77.0215 25.8168 84.1793C32.9774 91.343 44.6308 91.343 51.7918 84.1793L62.1171 73.8565C57.6847 74.6695 53.0613 74.1214 48.8889 72.2452L48.889 72.2454Z" fill="url(#paint2_linear_1616_29592)"/>
</g>
<path d="M30.3074 40.7422C30.8393 37.6857 31.6912 36.834 34.7476 36.302C34.9174 36.302 35.0551 36.1642 35.0551 35.9944C35.0551 35.8245 34.9174 35.6869 34.7476 35.6869C31.6849 35.1672 30.8331 34.3155 30.3074 31.2588C30.3074 31.089 30.1697 30.9512 29.9999 30.9512C29.8301 30.9512 29.6923 31.089 29.6923 31.2588C29.1665 34.3153 28.3147 35.167 25.2583 35.6928C25.0885 35.6928 24.9507 35.8306 24.9507 36.0004C24.9507 36.1702 25.0885 36.3079 25.2583 36.3079C28.3148 36.8398 29.1665 37.6917 29.6985 40.7481C29.7216 40.8995 29.8525 41.0107 30.0055 41.0092C30.1587 41.0076 30.2874 40.8937 30.3074 40.742L30.3074 40.7422Z" fill="url(#paint3_linear_1616_29592)"/>
<path d="M40.4305 30.6391C41.1752 26.36 42.3679 25.1676 46.6468 24.4228C46.8846 24.4228 47.0773 24.2299 47.0773 23.9921C47.0773 23.7544 46.8846 23.5617 46.6468 23.5617C42.359 22.8341 41.1666 21.6417 40.4305 17.3623C40.4305 17.1245 40.2378 16.9316 40.0001 16.9316C39.7623 16.9316 39.5694 17.1245 39.5694 17.3623C38.8332 21.6414 37.6408 22.8338 33.3618 23.5699C33.1241 23.5699 32.9312 23.7628 32.9312 24.0005C32.9312 24.2383 33.1241 24.431 33.3618 24.431C37.6409 25.1757 38.8333 26.3684 39.5781 30.6473C39.6104 30.8592 39.7937 31.015 40.008 31.0128C40.2224 31.0107 40.4025 30.8511 40.4305 30.6388L40.4305 30.6391Z" fill="url(#paint4_linear_1616_29592)"/>
</g>
</g>
<rect x="4.5" y="6.5" width="99" height="99" rx="14.5" stroke="#E9EDF1" stroke-opacity="0.2"/>
</g>
<path d="M171.56 72.32V82.4C169 82.9333 166.493 83.3333 164.04 83.6C161.587 83.8667 158.68 84 155.32 84C151 84 147.347 83.6267 144.36 82.88C141.427 82.1333 139.053 80.8267 137.24 78.96C135.48 77.04 134.2 74.3467 133.4 70.88C132.6 67.4133 132.2 62.96 132.2 57.52C132.2 52.2933 132.6 48 133.4 44.64C134.2 41.28 135.48 38.6933 137.24 36.88C139.053 35.0133 141.427 33.7333 144.36 33.04C147.347 32.2933 151 31.92 155.32 31.92C158.68 31.92 161.587 32.0533 164.04 32.32C166.493 32.5333 169 32.9333 171.56 33.52V43.92L171.32 44.08C169.08 43.5467 166.92 43.1733 164.84 42.96C162.76 42.6933 160.2 42.56 157.16 42.56C154.707 42.56 152.68 42.7467 151.08 43.12C149.533 43.44 148.307 44.1067 147.4 45.12C146.493 46.1333 145.853 47.6267 145.48 49.6C145.16 51.5733 145 54.2133 145 57.52C145 60.9867 145.16 63.7867 145.48 65.92C145.853 68 146.493 69.5733 147.4 70.64C148.307 71.7067 149.533 72.4267 151.08 72.8C152.68 73.1733 154.707 73.36 157.16 73.36C160.147 73.36 162.68 73.28 164.76 73.12C166.893 72.9067 169.027 72.5333 171.16 72L171.56 72.32ZM175.531 64.08C175.531 56.9333 177.051 51.7867 180.091 48.64C183.131 45.4933 188.278 43.92 195.531 43.92C200.385 43.92 204.278 44.6133 207.211 46C210.145 47.3867 212.251 49.5733 213.531 52.56C214.865 55.4933 215.531 59.3333 215.531 64.08C215.531 68.7733 214.865 72.5867 213.531 75.52C212.251 78.4533 210.145 80.6133 207.211 82C204.278 83.3333 200.385 84 195.531 84C188.278 84 183.131 82.4533 180.091 79.36C177.051 76.2133 175.531 71.12 175.531 64.08ZM195.531 73.04C198.625 73.04 200.705 72.3733 201.771 71.04C202.891 69.6533 203.451 67.2533 203.451 63.84C203.451 60.5867 202.891 58.2667 201.771 56.88C200.705 55.44 198.625 54.72 195.531 54.72C192.545 54.72 190.465 55.44 189.291 56.88C188.171 58.2667 187.611 60.5867 187.611 63.84C187.611 67.2533 188.171 69.6533 189.291 71.04C190.465 72.3733 192.545 73.04 195.531 73.04ZM235.116 83.28H222.316V29.44H235.116V83.28ZM257.538 83.28H244.738V29.44H257.538V83.28ZM281.959 43.92C287.079 43.92 291.213 44.4533 294.359 45.52C297.506 46.5867 299.799 48.56 301.239 51.44C302.733 54.2667 303.479 58.3733 303.479 63.76V83.28H291.879L291.479 79.6H291.239C290.226 80.9333 288.653 82 286.519 82.8C284.386 83.6 281.613 84 278.199 84C268.973 84 264.359 79.68 264.359 71.04C264.359 67.36 265.559 64.48 267.959 62.4C270.413 60.2667 274.253 59.2 279.479 59.2H291.319C290.946 56.96 289.986 55.4667 288.439 54.72C286.893 53.92 284.253 53.52 280.519 53.52C278.173 53.52 275.853 53.7067 273.559 54.08C271.319 54.4 269.346 54.7733 267.639 55.2L267.399 55.04L267.479 45.76C268.546 45.44 269.906 45.1467 271.559 44.88C273.213 44.56 274.946 44.32 276.759 44.16C278.626 44 280.359 43.92 281.959 43.92ZM281.479 74.56C284.786 74.56 287.266 74.16 288.919 73.36C290.573 72.5067 291.426 71.1733 291.479 69.36V67.36H282.439C280.093 67.36 278.439 67.7067 277.479 68.4C276.573 69.04 276.119 69.92 276.119 71.04C276.119 72.3733 276.599 73.3067 277.559 73.84C278.519 74.32 279.826 74.56 281.479 74.56ZM351.367 62.08C351.367 69.28 349.9 74.7467 346.967 78.48C344.034 82.16 339.047 84 332.007 84C328.06 84 324.38 83.8667 320.967 83.6C317.607 83.28 314.647 82.9067 312.087 82.48L311.847 82.32V29.44H324.647V50.32H324.967C325.714 48.4 326.94 46.8533 328.647 45.68C330.407 44.5067 332.887 43.92 336.087 43.92C346.274 43.92 351.367 49.9733 351.367 62.08ZM324.647 63.44V72.8C325.927 73.0133 327.42 73.12 329.127 73.12C331.634 73.12 333.58 72.9067 334.967 72.48C336.407 72 337.42 71.0933 338.007 69.76C338.594 68.4267 338.887 66.5067 338.887 64C338.887 60.8533 338.434 58.5333 337.527 57.04C336.62 55.5467 334.754 54.8 331.927 54.8C329.794 54.8 328.034 55.4667 326.647 56.8C325.314 58.08 324.647 60.2933 324.647 63.44ZM394.975 72.4V83.28H358.175V32.64H370.975V72.4H394.975ZM412.677 29.84C412.837 31.76 412.917 33.36 412.917 34.64C412.917 35.3867 412.89 36.16 412.837 36.96C412.837 37.7067 412.784 38.56 412.677 39.52C411.557 39.7333 410.464 39.8933 409.397 40C408.33 40.1067 407.264 40.16 406.197 40.16C405.184 40.16 404.144 40.1067 403.077 40C402.064 39.8933 401.024 39.7333 399.957 39.52C399.85 38.6133 399.77 37.7867 399.717 37.04C399.664 36.24 399.637 35.4667 399.637 34.72C399.637 34.0267 399.664 33.28 399.717 32.48C399.77 31.68 399.85 30.8 399.957 29.84C401.024 29.5733 402.09 29.4133 403.157 29.36C404.277 29.2533 405.37 29.2 406.437 29.2C407.45 29.2 408.464 29.2533 409.477 29.36C410.544 29.4133 411.61 29.5733 412.677 29.84ZM412.677 83.28H399.877V44.32H412.677V83.28ZM434.334 83.28H421.534V44.32H433.694L434.334 51.44H434.574C435.321 49.04 436.654 47.2 438.574 45.92C440.494 44.5867 443.161 43.92 446.574 43.92C451.214 43.92 454.628 45.2267 456.814 47.84C459.054 50.4533 460.174 54.9867 460.174 61.44V83.28H447.374L447.294 63.92C447.294 60.9333 446.841 58.8 445.934 57.52C445.028 56.24 443.321 55.6 440.814 55.6C438.468 55.6 436.814 56.1867 435.854 57.36C434.894 58.48 434.388 60.4267 434.334 63.2V83.28ZM481.756 83.28H468.956V29.44H481.756V60.8H481.916L491.996 44.32H506.076V44.64L494.236 63.04V63.36L507.996 83.28H493.276L481.996 65.28L481.756 65.2V83.28Z" fill="url(#paint5_linear_1616_29592)"/>
<defs>
<filter id="filter0_d_1616_29592" x="0" y="6" width="108" height="108" filterUnits="userSpaceOnUse" color-interpolation-filters="sRGB">
<feFlood flood-opacity="0" result="BackgroundImageFix"/>
<feColorMatrix in="SourceAlpha" type="matrix" values="0 0 0 0 0 0 0 0 0 0 0 0 0 0 0 0 0 0 127 0" result="hardAlpha"/>
<feOffset dy="4"/>
<feGaussianBlur stdDeviation="2"/>
<feComposite in2="hardAlpha" operator="out"/>
<feColorMatrix type="matrix" values="0 0 0 0 0.602686 0 0 0 0 0.630002 0 0 0 0 0.636831 0 0 0 0.1 0"/>
<feBlend mode="normal" in2="BackgroundImageFix" result="effect1_dropShadow_1616_29592"/>
<feBlend mode="normal" in="BackgroundImageFix" in2="effect1_dropShadow_1616_29592" result="BackgroundImageFix"/>
<feBlend mode="normal" in="SourceGraphic" in2="BackgroundImageFix" result="shape"/>
</filter>
<filter id="filter1_diii_1616_29592" x="9" y="13" width="90" height="90" filterUnits="userSpaceOnUse" color-interpolation-filters="sRGB">
<feFlood flood-opacity="0" result="BackgroundImageFix"/>
<feColorMatrix in="SourceAlpha" type="matrix" values="0 0 0 0 0 0 0 0 0 0 0 0 0 0 0 0 0 0 127 0" result="hardAlpha"/>
<feOffset dy="2"/>
<feGaussianBlur stdDeviation="2.5"/>
<feComposite in2="hardAlpha" operator="out"/>
<feColorMatrix type="matrix" values="0 0 0 0 0.290196 0 0 0 0 0.227451 0 0 0 0 1 0 0 0 0.25 0"/>
<feBlend mode="normal" in2="BackgroundImageFix" result="effect1_dropShadow_1616_29592"/>
<feBlend mode="normal" in="SourceGraphic" in2="effect1_dropShadow_1616_29592" result="shape"/>
<feColorMatrix in="SourceAlpha" type="matrix" values="0 0 0 0 0 0 0 0 0 0 0 0 0 0 0 0 0 0 127 0" result="hardAlpha"/>
<feOffset dy="-2"/>
<feGaussianBlur stdDeviation="1"/>
<feComposite in2="hardAlpha" operator="arithmetic" k2="-1" k3="1"/>
<feColorMatrix type="matrix" values="0 0 0 0 0 0 0 0 0 0.258824 0 0 0 0 0.537255 0 0 0 0.15 0"/>
<feBlend mode="normal" in2="shape" result="effect2_innerShadow_1616_29592"/>
<feColorMatrix in="SourceAlpha" type="matrix" values="0 0 0 0 0 0 0 0 0 0 0 0 0 0 0 0 0 0 127 0" result="hardAlpha"/>
<feOffset dy="1"/>
<feGaussianBlur stdDeviation="0.5"/>
<feComposite in2="hardAlpha" operator="arithmetic" k2="-1" k3="1"/>
<feColorMatrix type="matrix" values="0 0 0 0 1 0 0 0 0 1 0 0 0 0 1 0 0 0 0.1 0"/>
<feBlend mode="normal" in2="effect2_innerShadow_1616_29592" result="effect3_innerShadow_1616_29592"/>
<feColorMatrix in="SourceAlpha" type="matrix" values="0 0 0 0 0 0 0 0 0 0 0 0 0 0 0 0 0 0 127 0" result="hardAlpha"/>
<feOffset dy="3"/>
<feGaussianBlur stdDeviation="2"/>
<feComposite in2="hardAlpha" operator="arithmetic" k2="-1" k3="1"/>
<feColorMatrix type="matrix" values="0 0 0 0 0.87451 0 0 0 0 0.933333 0 0 0 0 1 0 0 0 0.1 0"/>
<feBlend mode="normal" in2="effect3_innerShadow_1616_29592" result="effect4_innerShadow_1616_29592"/>
</filter>
<filter id="filter2_d_1616_29592" x="16.4463" y="22.4492" width="75.1057" height="75.1035" filterUnits="userSpaceOnUse" color-interpolation-filters="sRGB">
<feFlood flood-opacity="0" result="BackgroundImageFix"/>
<feColorMatrix in="SourceAlpha" type="matrix" values="0 0 0 0 0 0 0 0 0 0 0 0 0 0 0 0 0 0 127 0" result="hardAlpha"/>
<feOffset dy="4"/>
<feGaussianBlur stdDeviation="2"/>
<feComposite in2="hardAlpha" operator="out"/>
<feColorMatrix type="matrix" values="0 0 0 0 0.464441 0 0 0 0 0.583902 0 0 0 0 0.675255 0 0 0 0.25 0"/>
<feBlend mode="normal" in2="BackgroundImageFix" result="effect1_dropShadow_1616_29592"/>
<feBlend mode="normal" in="SourceGraphic" in2="effect1_dropShadow_1616_29592" result="shape"/>
</filter>
<linearGradient id="paint0_linear_1616_29592" x1="4" y1="6" x2="59.369" y2="123.292" gradientUnits="userSpaceOnUse">
<stop stop-color="#4175F9"/>
<stop offset="1" stop-color="#0A2466"/>
</linearGradient>
<linearGradient id="paint1_linear_1616_29592" x1="83.8326" y1="39.2364" x2="51.4621" y2="69.6593" gradientUnits="userSpaceOnUse">
<stop stop-color="white"/>
<stop offset="1" stop-color="white" stop-opacity="0.65"/>
</linearGradient>
<linearGradient id="paint2_linear_1616_29592" x1="61.6822" y1="58.5041" x2="29.3081" y2="88.9265" gradientUnits="userSpaceOnUse">
<stop stop-color="white"/>
<stop offset="1" stop-color="white" stop-opacity="0.65"/>
</linearGradient>
<linearGradient id="paint3_linear_1616_29592" x1="30.0029" y1="30.9512" x2="30.0029" y2="41.0092" gradientUnits="userSpaceOnUse">
<stop stop-color="white"/>
<stop offset="1" stop-color="white" stop-opacity="0.65"/>
</linearGradient>
<linearGradient id="paint4_linear_1616_29592" x1="40.0042" y1="16.9316" x2="40.0042" y2="31.0129" gradientUnits="userSpaceOnUse">
<stop stop-color="white"/>
<stop offset="1" stop-color="white" stop-opacity="0.65"/>
</linearGradient>
<linearGradient id="paint5_linear_1616_29592" x1="98.5" y1="15" x2="533" y2="56" gradientUnits="userSpaceOnUse">
<stop offset="0.531485" stop-color="#1F2124"/>
</linearGradient>
<clipPath id="clip0_1616_29592">
<rect x="4" y="6" width="100" height="100" rx="15" fill="white"/>
</clipPath>
<clipPath id="clip1_1616_29592">
<rect width="80" height="80" fill="white" transform="translate(14 16)"/>
</clipPath>
</defs>
</svg>
