<svg width="102" height="67" viewBox="0 0 102 67" fill="none" xmlns="http://www.w3.org/2000/svg">
<g clip-path="url(#clip0_1573_1927)">
<rect width="102" height="67" fill="url(#paint0_linear_1573_1927)"/>
</g>
<rect x="26" y="63" width="50" height="4" fill="url(#paint1_linear_1573_1927)"/>
<path d="M76 59.875V63H26V59.875H26.0109C26.1357 49.1517 28.5141 47.6064 44.2777 40.8687C40.8061 37.1703 38.4983 31.0362 38.4983 25.4998C38.4983 16.8702 44.0951 13 50.998 13C57.9024 13 63.4988 16.8701 63.4988 25.4998C63.4988 31.0357 61.191 37.1699 57.719 40.8687C73.4849 47.6061 75.8578 49.1514 75.9868 59.875H76Z" fill="url(#paint2_linear_1573_1927)"/>
<defs>
<linearGradient id="paint0_linear_1573_1927" x1="93.5" y1="24.9302" x2="-0.480903" y2="49.7058" gradientUnits="userSpaceOnUse">
<stop stop-color="#7341FB"/>
<stop offset="0.322917" stop-color="#9D69FF"/>
<stop offset="0.666667" stop-color="#EA67FF"/>
<stop offset="1" stop-color="#FFDD2B"/>
</linearGradient>
<linearGradient id="paint1_linear_1573_1927" x1="50" y1="63.1667" x2="50.4567" y2="70.3599" gradientUnits="userSpaceOnUse">
<stop stop-color="white" stop-opacity="0.69"/>
<stop offset="1" stop-color="white"/>
</linearGradient>
<linearGradient id="paint2_linear_1573_1927" x1="60.5" y1="29" x2="50.9999" y2="63" gradientUnits="userSpaceOnUse">
<stop stop-color="white"/>
<stop offset="1" stop-color="white" stop-opacity="0.69"/>
</linearGradient>
<clipPath id="clip0_1573_1927">
<rect width="102" height="67" fill="white"/>
</clipPath>
</defs>
</svg>
