<svg width="158" height="158" viewBox="0 0 158 158" fill="none" xmlns="http://www.w3.org/2000/svg">
<path d="M78.9668 0L78.608 0C35.194 0 0 35.2044 0 78.6311L0 78.9901C0 122.417 35.194 157.621 78.608 157.621H78.9668C122.381 157.621 157.575 122.417 157.575 78.9901V78.6311C157.575 35.2044 122.381 0 78.9668 0Z" fill="white"/>
<path d="M118.737 62.5986V77.481C116.137 77.227 112.759 76.6361 109.021 75.2666C104.141 73.4774 100.508 71.031 98.129 69.1369V99.2165L98.0683 99.1227C98.1069 99.7191 98.129 100.327 98.129 100.939C98.129 115.877 85.9781 128.037 71.0393 128.037C56.1006 128.037 43.9497 115.877 43.9497 100.939C43.9497 86.0018 56.1006 73.8363 71.0393 73.8363C72.5023 73.8363 73.9377 73.9523 75.3399 74.1787V88.8458C73.9929 88.3653 72.5465 88.1058 71.0393 88.1058C63.9674 88.1058 58.2095 93.86 58.2095 100.939C58.2095 108.019 63.9674 113.773 71.0393 113.773C78.1112 113.773 83.8693 108.013 83.8693 100.939C83.8693 100.674 83.8637 100.409 83.8472 100.144V41.6914H98.7142C98.7694 42.9505 98.8191 44.2206 98.8743 45.4797C98.9737 47.9591 99.857 50.3392 101.397 52.2886C103.202 54.5803 105.869 57.242 109.612 59.3681C113.117 61.3561 116.408 62.2065 118.737 62.6096V62.5986Z" fill="#FF004F"/>
<path d="M113.625 50.5159V65.3983C111.025 65.1443 107.647 64.5534 103.909 63.1839C99.0289 61.3947 95.3963 58.9483 93.0169 57.0542V87.1338L92.9562 87.04C92.9948 87.6364 93.0169 88.2438 93.0169 88.8568C93.0169 103.794 80.8661 115.954 65.9273 115.954C50.9885 115.954 38.8376 103.794 38.8376 88.8568C38.8376 73.9191 50.9885 61.7536 65.9273 61.7536C67.3902 61.7536 68.8256 61.8696 70.2278 62.096V76.7631C68.8808 76.2826 67.4344 76.0231 65.9273 76.0231C58.8554 76.0231 53.0974 81.7773 53.0974 88.8568C53.0974 95.9363 58.8554 101.69 65.9273 101.69C72.9992 101.69 78.7572 95.9308 78.7572 88.8568C78.7572 88.5917 78.7516 88.3266 78.7351 88.0616V29.5977H93.6021C93.6573 30.8567 93.707 32.1268 93.7622 33.3859C93.8616 35.8654 94.7449 38.2455 96.2851 40.1948C98.0904 42.4866 100.757 45.1483 104.5 47.2743C108.005 49.2568 111.296 50.1128 113.625 50.5159Z" fill="#00F7EF"/>
<path d="M116.877 57.0205V71.9029C114.277 71.6489 110.898 71.058 107.161 69.6885C102.28 67.8993 98.6478 65.4529 96.2684 63.5588V93.6384L96.2077 93.5445C96.2463 94.1409 96.2684 94.7484 96.2684 95.3614C96.2684 110.299 84.1175 122.459 69.1787 122.459C54.24 122.459 42.0891 110.299 42.0891 95.3614C42.0891 80.4237 54.24 68.2582 69.1787 68.2582C70.6417 68.2582 72.0771 68.3742 73.4793 68.6006V83.2677C72.1323 82.7872 70.6859 82.5277 69.1787 82.5277C62.1068 82.5277 56.3489 88.2819 56.3489 95.3614C56.3489 102.441 62.1068 108.195 69.1787 108.195C76.2507 108.195 82.0086 102.435 82.0086 95.3614C82.0086 95.0963 82.0031 94.8312 81.9866 94.5662V36.1133H96.8536C96.9088 37.3724 96.9585 38.6425 97.0137 39.9015C97.1131 42.381 97.9963 44.7611 99.5366 46.7105C101.342 49.0022 104.008 51.6639 107.751 53.79C111.257 55.7724 114.547 56.6284 116.877 57.0315V57.0205Z" fill="black"/>
</svg>
